<?xml version="1.0" encoding="UTF-8"?>
<svg id="Capa_2" data-name="Capa 2" xmlns="http://www.w3.org/2000/svg" viewBox="0 0 224 89">
  <defs>
    <style>
      .cls-1, .cls-2 {
        stroke-width: 0px;
      }

      .cls-2 {
        fill: #f72585;
      }
    </style>
  </defs>
  <g id="Capa_1-2" data-name="Capa 1">
    <g>
      <g>
        <path class="cls-2" d="m64.63,67h-5.68c-.44,0-.85-.21-1.12-.57l-8.83-11.73-8.83,11.73c-.27.36-.68.57-1.12.57h-5.68c-.62,0-1.17-.42-1.36-1.03l-9.95-33.06c-.19-.65.06-1.34.62-1.69.56-.35,1.28-.26,1.74.22l19.18,19.84c.56.57.56,1.5,0,2.08s-1.45.57-2.01,0l-15.11-15.63,7.93,26.34h3.94l9.52-12.66c.54-.72,1.71-.72,2.24,0l9.52,12.66h3.94l7.93-26.34-15.11,15.63c-.56.57-1.45.57-2.01,0s-.56-1.5,0-2.08l19.18-19.84c.46-.48,1.18-.57,1.74-.22.56.35.82,1.05.62,1.69l-9.95,33.06c-.19.61-.73,1.03-1.36,1.03Z"/>
        <path class="cls-2" d="m49,53.3c-.3,0-.6-.12-.83-.37l-10.55-11.5c-.39-.43-.46-1.11-.15-1.61l10.55-17.25c.22-.36.58-.57.98-.57s.76.21.98.57l10.55,17.25c.31.51.25,1.18-.15,1.61l-10.55,11.5c-.23.25-.53.37-.83.37Zm-9.04-12.94l9.04,9.85,9.04-9.85-9.04-14.78-9.04,14.78Z"/>
      </g>
      <path class="cls-1" d="m220,4v81H4V4h216m4-4H0v89h224V0h0Z"/>
      <g>
        <path class="cls-1" d="m114.31,41.01c1.59.89,2.83,2.21,3.73,3.94.89,1.74,1.34,3.82,1.34,6.26v15.83h-6.82v-14.9c0-2.14-.54-3.79-1.61-4.94-1.07-1.15-2.53-1.73-4.38-1.73s-3.37.58-4.46,1.73c-1.09,1.15-1.63,2.8-1.63,4.94v14.9h-6.82V31h6.82v12.42c.88-1.17,2.05-2.09,3.51-2.75,1.46-.66,3.08-1,4.87-1,2.05,0,3.86.45,5.45,1.34Z"/>
        <path class="cls-1" d="m150.73,55.59h-19.72c.16,1.95.84,3.47,2.05,4.58,1.2,1.1,2.68,1.66,4.43,1.66,2.53,0,4.33-1.09,5.41-3.26h7.35c-.78,2.6-2.27,4.73-4.48,6.4-2.21,1.67-4.92,2.51-8.13,2.51-2.6,0-4.93-.58-6.99-1.73-2.06-1.15-3.67-2.78-4.82-4.89-1.15-2.11-1.73-4.55-1.73-7.31s.57-5.24,1.7-7.35c1.14-2.11,2.73-3.73,4.77-4.87,2.05-1.14,4.4-1.7,7.06-1.7s4.86.55,6.89,1.66c2.03,1.1,3.6,2.67,4.72,4.7,1.12,2.03,1.68,4.36,1.68,6.99,0,.97-.07,1.85-.19,2.63Zm-6.87-4.58c-.03-1.75-.67-3.16-1.9-4.21-1.23-1.05-2.74-1.58-4.53-1.58-1.69,0-3.11.51-4.26,1.53-1.15,1.02-1.86,2.44-2.12,4.26h12.81Z"/>
        <path class="cls-1" d="m166.15,40.89c1.41-.81,3.03-1.22,4.85-1.22v7.16h-1.8c-2.14,0-3.76.5-4.85,1.51-1.09,1.01-1.63,2.76-1.63,5.26v13.44h-6.82v-26.98h6.82v4.19c.88-1.43,2.02-2.55,3.43-3.36Z"/>
        <path class="cls-1" d="m175.45,46.19c1.09-2.11,2.56-3.73,4.43-4.87,1.87-1.14,3.95-1.7,6.26-1.7,2.01,0,3.77.41,5.28,1.22,1.51.81,2.72,1.83,3.63,3.07v-3.85h6.87v26.98h-6.87v-3.94c-.88,1.27-2.09,2.31-3.63,3.14-1.54.83-3.32,1.24-5.33,1.24-2.27,0-4.34-.58-6.21-1.75-1.87-1.17-3.34-2.82-4.43-4.94-1.09-2.13-1.63-4.57-1.63-7.33s.54-5.15,1.63-7.26Zm18.63,3.09c-.65-1.18-1.53-2.09-2.63-2.73-1.1-.63-2.29-.95-3.56-.95s-2.43.31-3.51.93c-1.07.62-1.94,1.52-2.61,2.7-.67,1.19-1,2.59-1,4.21s.33,3.04,1,4.26c.66,1.22,1.54,2.15,2.63,2.8,1.09.65,2.25.97,3.48.97s2.45-.32,3.56-.95c1.1-.63,1.98-1.54,2.63-2.73.65-1.18.97-2.61.97-4.26s-.32-3.08-.97-4.26Z"/>
      </g>
    </g>
  </g>
</svg>